<?xml version="1.0"?>
<svg xmlns="http://www.w3.org/2000/svg" xmlns:xlink="http://www.w3.org/1999/xlink" version="1.1" id="Capa_1" x="0px" y="0px" viewBox="0 0 512.001 512.001" style="enable-background:new 0 0 512.001 512.001;" xml:space="preserve" width="512px" height="512px"><g><g>
	<g>
		<path d="M317.878,220.337c13.801,16.098,24.369,33.986,32.074,52.779l152.657-152.041c2.817-2.817,4.392-6.629,4.392-10.607V31.83    L317.878,220.337z" data-original="#000000" class="active-path" data-old_color="#000000" fill="#8E9095"/>
	</g>
</g><g>
	<g>
		<path d="M127.497,374.505c-8.266,0-14.998,6.733-14.998,14.998c0,8.286,6.712,14.998,14.998,14.998    c8.266,0,14.998-6.733,14.998-14.998C142.496,381.239,135.762,374.505,127.497,374.505z" data-original="#000000" class="active-path" data-old_color="#000000" fill="#8E9095"/>
	</g>
</g><g>
	<g>
		<path d="M286.596,209.192L486.372,10.033L376.687,0.062c-7.634-0.694-14.563,4.495-16.065,12.005l-8.639,43.214l-47.115,11.923    c-5.935,1.191-10.576,5.832-11.767,11.767l-8.649,43.224l-43.214,8.639c-5.365,1.077-9.716,4.972-11.363,10.203l-14.967,47.429    c-57.176-16.221-119.159-0.559-161.657,41.94c-64.334,64.334-64.334,169.012,0,233.345s169.012,64.334,233.345,0    c64.035-64.036,64.146-169.183,0-233.346C280.733,224.542,280.733,215.054,286.596,209.192z M127.497,434.499    c-24.818,0-44.995-20.177-44.995-44.995s20.177-44.995,44.995-44.995s44.995,20.177,44.995,44.995    C172.493,414.321,152.315,434.499,127.497,434.499z" data-original="#000000" class="active-path" data-old_color="#000000" fill="#8E9095"/>
	</g>
</g></g> </svg>
